<mxfile host="app.diagrams.net" modified="2020-11-08T15:36:26.607Z" agent="5.0 (Windows NT 10.0; Win64; x64) AppleWebKit/537.36 (KHTML, like Gecko) Chrome/86.0.4240.183 Safari/537.36" etag="pbrjXyT-vOOIP-gi5qoD" version="13.9.2" type="github">
  <diagram id="M-r2KvOiGQampgGJAHBi" name="Page-1">
    <mxGraphModel dx="898" dy="511" grid="1" gridSize="10" guides="1" tooltips="1" connect="1" arrows="1" fold="1" page="1" pageScale="1" pageWidth="827" pageHeight="1169" background="none" math="0" shadow="0">
      <root>
        <mxCell id="0" />
        <mxCell id="1" parent="0" />
        <mxCell id="YObjTYddOFlQ0gVV6bDq-1" value="" style="ellipse;html=1;shape=endState;fillColor=#000000;strokeColor=#000000;" parent="1" vertex="1">
          <mxGeometry x="384" y="10" width="30" height="30" as="geometry" />
        </mxCell>
        <mxCell id="YObjTYddOFlQ0gVV6bDq-2" value="" style="endArrow=classic;html=1;exitX=0.5;exitY=1;exitDx=0;exitDy=0;entryX=0.5;entryY=0;entryDx=0;entryDy=0;" parent="1" source="YObjTYddOFlQ0gVV6bDq-1" target="YObjTYddOFlQ0gVV6bDq-3" edge="1">
          <mxGeometry width="50" height="50" relative="1" as="geometry">
            <mxPoint x="390" y="200" as="sourcePoint" />
            <mxPoint x="399" y="120" as="targetPoint" />
          </mxGeometry>
        </mxCell>
        <mxCell id="YObjTYddOFlQ0gVV6bDq-3" value="Изучение анализов пациента" style="rounded=1;whiteSpace=wrap;html=1;" parent="1" vertex="1">
          <mxGeometry x="339" y="70" width="120" height="60" as="geometry" />
        </mxCell>
        <mxCell id="YObjTYddOFlQ0gVV6bDq-4" value="Такой диагноз уже существует?" style="rhombus;whiteSpace=wrap;html=1;" parent="1" vertex="1">
          <mxGeometry x="289" y="150" width="220" height="100" as="geometry" />
        </mxCell>
        <mxCell id="YObjTYddOFlQ0gVV6bDq-5" value="" style="endArrow=classic;html=1;exitX=0.5;exitY=1;exitDx=0;exitDy=0;entryX=0.5;entryY=0;entryDx=0;entryDy=0;" parent="1" source="YObjTYddOFlQ0gVV6bDq-3" target="YObjTYddOFlQ0gVV6bDq-4" edge="1">
          <mxGeometry width="50" height="50" relative="1" as="geometry">
            <mxPoint x="390" y="200" as="sourcePoint" />
            <mxPoint x="440" y="150" as="targetPoint" />
          </mxGeometry>
        </mxCell>
        <mxCell id="YObjTYddOFlQ0gVV6bDq-6" value="" style="endArrow=classic;html=1;exitX=0;exitY=0.5;exitDx=0;exitDy=0;edgeStyle=orthogonalEdgeStyle;entryX=0.5;entryY=0;entryDx=0;entryDy=0;" parent="1" source="YObjTYddOFlQ0gVV6bDq-4" target="YObjTYddOFlQ0gVV6bDq-10" edge="1">
          <mxGeometry width="50" height="50" relative="1" as="geometry">
            <mxPoint x="390" y="200" as="sourcePoint" />
            <mxPoint x="180" y="260" as="targetPoint" />
          </mxGeometry>
        </mxCell>
        <mxCell id="YObjTYddOFlQ0gVV6bDq-7" value="" style="endArrow=classic;html=1;exitX=1;exitY=0.5;exitDx=0;exitDy=0;edgeStyle=orthogonalEdgeStyle;entryX=1;entryY=0.5;entryDx=0;entryDy=0;" parent="1" source="YObjTYddOFlQ0gVV6bDq-4" target="YObjTYddOFlQ0gVV6bDq-11" edge="1">
          <mxGeometry width="50" height="50" relative="1" as="geometry">
            <mxPoint x="390" y="200" as="sourcePoint" />
            <mxPoint x="520" y="290" as="targetPoint" />
            <Array as="points">
              <mxPoint x="580" y="200" />
              <mxPoint x="580" y="300" />
            </Array>
          </mxGeometry>
        </mxCell>
        <mxCell id="YObjTYddOFlQ0gVV6bDq-8" value="Да" style="text;html=1;resizable=0;autosize=1;align=center;verticalAlign=middle;points=[];fillColor=none;strokeColor=none;rounded=0;" parent="1" vertex="1">
          <mxGeometry x="540" y="170" width="30" height="20" as="geometry" />
        </mxCell>
        <mxCell id="YObjTYddOFlQ0gVV6bDq-9" value="Нет" style="text;html=1;resizable=0;autosize=1;align=center;verticalAlign=middle;points=[];fillColor=none;strokeColor=none;rounded=0;" parent="1" vertex="1">
          <mxGeometry x="210" y="170" width="40" height="20" as="geometry" />
        </mxCell>
        <mxCell id="YObjTYddOFlQ0gVV6bDq-10" value="Добавить новое название в базу диагнозов" style="rounded=1;whiteSpace=wrap;html=1;" parent="1" vertex="1">
          <mxGeometry x="120" y="270" width="120" height="60" as="geometry" />
        </mxCell>
        <mxCell id="YObjTYddOFlQ0gVV6bDq-11" value="" style="rhombus;whiteSpace=wrap;html=1;" parent="1" vertex="1">
          <mxGeometry x="359" y="275" width="80" height="50" as="geometry" />
        </mxCell>
        <mxCell id="YObjTYddOFlQ0gVV6bDq-12" value="" style="endArrow=classic;html=1;exitX=1;exitY=0.5;exitDx=0;exitDy=0;entryX=0;entryY=0.5;entryDx=0;entryDy=0;" parent="1" source="YObjTYddOFlQ0gVV6bDq-10" target="YObjTYddOFlQ0gVV6bDq-11" edge="1">
          <mxGeometry width="50" height="50" relative="1" as="geometry">
            <mxPoint x="390" y="370" as="sourcePoint" />
            <mxPoint x="390" y="310" as="targetPoint" />
          </mxGeometry>
        </mxCell>
        <mxCell id="YObjTYddOFlQ0gVV6bDq-13" value="" style="endArrow=classic;html=1;exitX=0.5;exitY=1;exitDx=0;exitDy=0;entryX=0.5;entryY=0;entryDx=0;entryDy=0;" parent="1" source="YObjTYddOFlQ0gVV6bDq-11" target="YObjTYddOFlQ0gVV6bDq-14" edge="1">
          <mxGeometry width="50" height="50" relative="1" as="geometry">
            <mxPoint x="390" y="370" as="sourcePoint" />
            <mxPoint x="399" y="390" as="targetPoint" />
          </mxGeometry>
        </mxCell>
        <mxCell id="YObjTYddOFlQ0gVV6bDq-14" value="Записать название диагноза в карту пациента" style="rounded=1;whiteSpace=wrap;html=1;" parent="1" vertex="1">
          <mxGeometry x="339" y="360" width="120" height="60" as="geometry" />
        </mxCell>
        <mxCell id="YObjTYddOFlQ0gVV6bDq-15" value="Записать дату поставленного диагноза" style="rounded=1;whiteSpace=wrap;html=1;" parent="1" vertex="1">
          <mxGeometry x="339" y="460" width="120" height="60" as="geometry" />
        </mxCell>
        <mxCell id="YObjTYddOFlQ0gVV6bDq-16" value="" style="endArrow=classic;html=1;exitX=0.5;exitY=1;exitDx=0;exitDy=0;entryX=0.5;entryY=0;entryDx=0;entryDy=0;" parent="1" source="YObjTYddOFlQ0gVV6bDq-14" target="YObjTYddOFlQ0gVV6bDq-15" edge="1">
          <mxGeometry width="50" height="50" relative="1" as="geometry">
            <mxPoint x="390" y="350" as="sourcePoint" />
            <mxPoint x="440" y="300" as="targetPoint" />
          </mxGeometry>
        </mxCell>
        <mxCell id="YObjTYddOFlQ0gVV6bDq-17" value="" style="endArrow=classic;html=1;exitX=0.5;exitY=1;exitDx=0;exitDy=0;entryX=0.5;entryY=0;entryDx=0;entryDy=0;" parent="1" source="YObjTYddOFlQ0gVV6bDq-15" target="YObjTYddOFlQ0gVV6bDq-18" edge="1">
          <mxGeometry width="50" height="50" relative="1" as="geometry">
            <mxPoint x="390" y="430" as="sourcePoint" />
            <mxPoint x="399" y="560" as="targetPoint" />
          </mxGeometry>
        </mxCell>
        <mxCell id="YObjTYddOFlQ0gVV6bDq-18" value="" style="ellipse;html=1;shape=endState;fillColor=#000000;strokeColor=#000000;" parent="1" vertex="1">
          <mxGeometry x="384" y="550" width="30" height="30" as="geometry" />
        </mxCell>
      </root>
    </mxGraphModel>
  </diagram>
</mxfile>
